<svg width="18" height="18" viewBox="0 0 18 18" fill="none" xmlns="http://www.w3.org/2000/svg">
<path fill-rule="evenodd" clip-rule="evenodd" d="M12.8758 4.39175H13.0555C15.4169 4.39175 17.3334 6.26675 17.3334 8.56675V13.1667C17.3334 15.4668 15.4169 17.3334 13.0555 17.3334H4.94458C2.58318 17.3334 0.666687 15.4668 0.666687 13.1667V8.56675C0.666687 6.26675 2.58318 4.39175 4.94458 4.39175H5.12425C5.14136 3.39175 5.54348 2.45842 6.27073 1.75841C7.00652 1.05008 7.94766 0.691748 9.00858 0.666748C11.1304 0.666748 12.8501 2.33341 12.8758 4.39175ZM7.1691 2.65008C6.68997 3.11675 6.42474 3.73341 6.40763 4.39175H11.5924C11.5668 3.02508 10.4203 1.91675 9.00859 1.91675C8.34979 1.91675 7.66533 2.17508 7.1691 2.65008ZM12.2512 7.60008C12.6105 7.60008 12.8929 7.31675 12.8929 6.97508V6.00841C12.8929 5.66675 12.6105 5.38341 12.2512 5.38341C11.9004 5.38341 11.6095 5.66675 11.6095 6.00841V6.97508C11.6095 7.31675 11.9004 7.60008 12.2512 7.60008ZM6.31348 6.97508C6.31348 7.31675 6.03114 7.60008 5.6718 7.60008C5.32101 7.60008 5.03011 7.31675 5.03011 6.97508V6.00841C5.03011 5.66675 5.32101 5.38341 5.6718 5.38341C6.03114 5.38341 6.31348 5.66675 6.31348 6.00841V6.97508Z" fill="white"/>
</svg>
