<svg width="24" height="18" viewBox="0 0 24 18" fill="none" xmlns="http://www.w3.org/2000/svg">
<path d="M20.6739 1.96724C18.5971 0.296044 15.3118 0.0127564 15.1712 0.0025658C14.9531 -0.0157765 14.7452 0.106506 14.6556 0.308273C14.6474 0.320501 14.5761 0.485583 14.4966 0.742376C15.8702 0.974713 17.5577 1.44142 19.0842 2.38911C19.3288 2.53993 19.4042 2.86194 19.2534 3.10651C19.1535 3.26751 18.9844 3.35515 18.8091 3.35515C18.7154 3.35515 18.6196 3.32865 18.534 3.27566C15.909 1.64727 12.6318 1.56575 12 1.56575C11.3682 1.56575 8.08899 1.64727 5.46603 3.27566C5.22147 3.42852 4.89946 3.35311 4.74864 3.10854C4.59579 2.86194 4.6712 2.54197 4.91576 2.38911C6.44226 1.44346 8.12976 0.974713 9.5034 0.744414C9.42391 0.485583 9.35258 0.322539 9.34647 0.308273C9.25476 0.106506 9.04891 -0.0198523 8.8288 0.0025658C8.68818 0.0127564 5.40285 0.296044 3.29755 1.98966C2.19905 3.00664 0 8.94958 0 14.0875C0 14.1792 0.0244565 14.2668 0.0692937 14.3463C1.5856 17.0121 5.72486 17.7091 6.66848 17.7397C6.67255 17.7397 6.67867 17.7397 6.68478 17.7397C6.8519 17.7397 7.00883 17.6602 7.10666 17.5257L8.06046 16.2132C5.48641 15.5488 4.17188 14.4197 4.09647 14.3524C3.88043 14.1629 3.86005 13.8327 4.05163 13.6167C4.24117 13.4007 4.57133 13.3803 4.78736 13.5698C4.81793 13.5984 7.23913 15.6527 12 15.6527C16.769 15.6527 19.1902 13.5902 19.2147 13.5698C19.4307 13.3823 19.7588 13.4007 19.9504 13.6187C20.1399 13.8348 20.1196 14.1629 19.9035 14.3524C19.8281 14.4197 18.5136 15.5488 15.9395 16.2132L16.8933 17.5257C16.9912 17.6602 17.1481 17.7397 17.3152 17.7397C17.3213 17.7397 17.3274 17.7397 17.3315 17.7397C18.2751 17.7091 22.4144 17.0121 23.9307 14.3463C23.9755 14.2668 24 14.1792 24 14.0875C24 8.94958 21.8009 3.00664 20.6739 1.96724ZM8.6087 12.0005C7.59986 12.0005 6.78261 11.0671 6.78261 9.91357C6.78261 8.76004 7.59986 7.82661 8.6087 7.82661C9.61753 7.82661 10.4348 8.76004 10.4348 9.91357C10.4348 11.0671 9.61753 12.0005 8.6087 12.0005ZM15.3913 12.0005C14.3825 12.0005 13.5652 11.0671 13.5652 9.91357C13.5652 8.76004 14.3825 7.82661 15.3913 7.82661C16.4001 7.82661 17.2174 8.76004 17.2174 9.91357C17.2174 11.0671 16.4001 12.0005 15.3913 12.0005Z" fill="white"/>
</svg>
