<svg width="17" height="17" viewBox="0 0 17 17" fill="none" xmlns="http://www.w3.org/2000/svg">
<path d="M8.74761 16.3068C8.30594 16.3084 7.88094 16.1318 7.56927 15.8184L1.03844 9.28926C0.868167 9.11955 0.736767 8.9149 0.653318 8.68944C0.569869 8.46398 0.53636 8.2231 0.555106 7.98342L0.971773 2.51176C1.00056 2.11341 1.17221 1.73885 1.45516 1.45697C1.7381 1.1751 2.11332 1.00487 2.51177 0.977591L7.98344 0.560924C8.02677 0.551758 8.06927 0.551758 8.11261 0.551758C8.55427 0.551758 8.97677 0.726758 9.28761 1.04009L15.8193 7.56842C15.9741 7.7232 16.0969 7.90696 16.1807 8.10921C16.2645 8.31147 16.3077 8.52825 16.3077 8.74717C16.3077 8.9661 16.2645 9.18288 16.1807 9.38514C16.0969 9.58739 15.9741 9.77115 15.8193 9.92592L9.92594 15.8184C9.77157 15.9737 9.58794 16.0968 9.38568 16.1806C9.18342 16.2644 8.96655 16.3073 8.74761 16.3068ZM5.21177 3.54509C4.9377 3.54517 4.66787 3.61284 4.42619 3.7421C4.18451 3.87136 3.97844 4.05823 3.82623 4.28616C3.67402 4.51408 3.58037 4.77602 3.55357 5.04879C3.52677 5.32155 3.56765 5.59671 3.67259 5.8499C3.77753 6.10309 3.94329 6.32649 4.15519 6.50032C4.36709 6.67415 4.61858 6.79304 4.8874 6.84646C5.15622 6.89988 5.43407 6.88618 5.69633 6.80658C5.95859 6.72697 6.19717 6.58392 6.39094 6.39009L6.39677 6.38509L6.40261 6.37926L6.39594 6.38509C6.62759 6.1514 6.78489 5.85436 6.848 5.53141C6.91111 5.20846 6.87721 4.87406 6.75057 4.57035C6.62394 4.26664 6.41023 4.00721 6.13639 3.82475C5.86255 3.6423 5.54083 3.54499 5.21177 3.54509Z" fill="white"/>
</svg>
