<svg width="20" height="20" viewBox="0 0 20 20" fill="none" xmlns="http://www.w3.org/2000/svg">
<path d="M13 6C13 6.79565 12.6839 7.55871 12.1213 8.12132C11.5587 8.68393 10.7956 9 10 9C9.20435 9 8.44129 8.68393 7.87868 8.12132C7.31607 7.55871 7 6.79565 7 6C7 5.20435 7.31607 4.44129 7.87868 3.87868C8.44129 3.31607 9.20435 3 10 3C10.7956 3 11.5587 3.31607 12.1213 3.87868C12.6839 4.44129 13 5.20435 13 6Z" fill="white"/>
<path d="M18 8C18 8.53043 17.7893 9.03914 17.4142 9.41421C17.0391 9.78929 16.5304 10 16 10C15.4696 10 14.9609 9.78929 14.5858 9.41421C14.2107 9.03914 14 8.53043 14 8C14 7.46957 14.2107 6.96086 14.5858 6.58579C14.9609 6.21071 15.4696 6 16 6C16.5304 6 17.0391 6.21071 17.4142 6.58579C17.7893 6.96086 18 7.46957 18 8Z" fill="white"/>
<path d="M14 15C14 13.9391 13.5786 12.9217 12.8284 12.1716C12.0783 11.4214 11.0609 11 10 11C8.93913 11 7.92172 11.4214 7.17157 12.1716C6.42143 12.9217 6 13.9391 6 15V18H14V15Z" fill="white"/>
<path d="M6 8C6 8.53043 5.78929 9.03914 5.41421 9.41421C5.03914 9.78929 4.53043 10 4 10C3.46957 10 2.96086 9.78929 2.58579 9.41421C2.21071 9.03914 2 8.53043 2 8C2 7.46957 2.21071 6.96086 2.58579 6.58579C2.96086 6.21071 3.46957 6 4 6C4.53043 6 5.03914 6.21071 5.41421 6.58579C5.78929 6.96086 6 7.46957 6 8Z" fill="white"/>
<path d="M16 18.0001V15.0001C16.0014 13.9833 15.7433 12.9831 15.25 12.0941C15.6933 11.9806 16.1568 11.9699 16.6049 12.0628C17.053 12.1557 17.474 12.3497 17.8357 12.63C18.1974 12.9103 18.4903 13.2695 18.6921 13.6803C18.8939 14.091 18.9992 14.5424 19 15.0001V18.0001H16Z" fill="white"/>
<path d="M4.75 12.094C4.25675 12.9831 3.9986 13.9833 4 15V18H1V15C0.999808 14.5421 1.10446 14.0902 1.30595 13.6789C1.50743 13.2676 1.80039 12.908 2.16238 12.6275C2.52437 12.3469 2.94578 12.153 3.39431 12.0606C3.84284 11.9681 4.30658 11.9796 4.75 12.094Z" fill="white"/>
</svg>
