<svg xmlns="http://www.w3.org/2000/svg" width="20" height="20" viewBox="0 0 20 20" fill="none">
  <g clip-path="url(#clip0_6_4221)">
    <path d="M0.00876926 14.333C-0.0181839 14.486 0.0166989 14.6435 0.10584 14.7708C0.194941 14.8981 0.331035 14.9848 0.484082 15.0117L3.08475 15.4703L1.4465 6.1792L0.00876926 14.333Z" fill="#5142FC"/>
    <path d="M3.1327 0.00943568C2.97931 -0.0184159 2.82103 0.0159591 2.69302 0.105022C2.56505 0.194123 2.47782 0.330569 2.45075 0.484162L1.82935 4.00838L13.6525 1.92362L3.1327 0.00943568Z" fill="#5142FC"/>
    <path d="M19.991 16.8705L17.549 3.02159C17.4928 2.70292 17.189 2.49026 16.8702 2.54632L3.02141 4.98823C2.70274 5.0444 2.48993 5.34831 2.5461 5.66698L4.98801 19.5158C5.015 19.6689 5.10168 19.8049 5.22899 19.8941C5.32817 19.9635 5.44563 20.0001 5.56508 20.0001C5.59895 20.0001 5.63301 19.9971 5.6668 19.9912L19.5156 17.5492C19.6687 17.5223 19.8047 17.4356 19.8939 17.3083C19.983 17.181 20.0179 17.0235 19.991 16.8705ZM5.66821 9.87632C5.61203 9.55765 5.82485 9.25374 6.14352 9.19757L15.3761 7.5696C15.6951 7.51343 15.9987 7.7262 16.0549 8.04487C16.1111 8.36354 15.8983 8.66745 15.5796 8.72362L6.34699 10.3516C6.31258 10.3577 6.27832 10.3606 6.24457 10.3606C5.96555 10.3606 5.71832 10.1606 5.66821 9.87632ZM13.316 13.8826L7.16098 14.9679C7.12656 14.974 7.09231 14.9769 7.05856 14.9769C6.77953 14.9769 6.53231 14.7769 6.48219 14.4926C6.42602 14.1739 6.63883 13.87 6.9575 13.8139L13.1125 12.7285C13.4314 12.6723 13.7351 12.8851 13.7913 13.2038C13.8475 13.5225 13.6347 13.8264 13.316 13.8826ZM15.9865 11.0318L6.75395 12.6598C6.71953 12.6658 6.68528 12.6687 6.65153 12.6687C6.3725 12.6687 6.12528 12.4687 6.07516 12.1844C6.01899 11.8658 6.2318 11.5619 6.55047 11.5057L15.7831 9.87772C16.102 9.82155 16.4057 10.0343 16.4619 10.353C16.518 10.6717 16.3052 10.9756 15.9865 11.0318Z" fill="#5142FC"/>
  </g>
  <defs>
    <clipPath id="clip0_6_4221">
      <rect width="20" height="20" fill="white"/>
    </clipPath>
  </defs>
</svg>