<svg width="28" height="28" viewBox="0 0 28 28" fill="none" xmlns="http://www.w3.org/2000/svg">
<g clip-path="url(#clip0_6_4213)">
<path d="M15.5016 18.208L16.7718 16.0081C19.6055 11.1 19.2409 6.9367 18.9643 5.41037C18.935 5.24484 18.834 5.10181 18.6898 5.01703C18.5446 4.93249 18.3706 4.91599 18.2116 4.97132C16.7382 5.48435 12.908 7.22726 10.0717 12.1398L8.8013 14.3403L8.23698 14.3794C7.14884 14.4556 6.16894 15.0678 5.62318 16.013L4.10722 18.6388C4.01744 18.7943 4.02025 18.9876 4.11456 19.1409C4.20976 19.294 4.38123 19.3818 4.56074 19.3695L6.38803 19.2526C6.90091 19.2202 7.41191 19.3391 7.85724 19.5962L8.82761 20.1565L8.09296 21.4289C7.95781 21.663 8.0379 21.9619 8.27143 22.0968L9.04839 22.5453C9.28193 22.6802 9.58084 22.6001 9.71599 22.366L10.4506 21.0935L11.4204 21.6534C11.8658 21.9106 12.2255 22.2929 12.4535 22.7552L13.265 24.395C13.3441 24.5566 13.506 24.6611 13.6861 24.667C13.866 24.6721 14.0349 24.5778 14.1246 24.4223L15.6406 21.7966C16.1857 20.8524 16.2253 19.6974 15.7485 18.7161L15.5016 18.208ZM14.1419 12.8273C13.3359 12.362 13.059 11.3304 13.5244 10.5245C13.99 9.71798 15.0215 9.44254 15.8274 9.90785C16.6328 10.3728 16.91 11.4039 16.4444 12.2103C15.9791 13.0163 14.9473 13.2923 14.1419 12.8273Z" fill="white"/>
</g>
<defs>
<clipPath id="clip0_6_4213">
<rect width="20" height="20" fill="white" transform="translate(10) rotate(30)"/>
</clipPath>
</defs>
</svg>
