<svg width="20" height="20" viewBox="0 0 20 20" fill="none" xmlns="http://www.w3.org/2000/svg">
<path d="M9.99151 1.66675C5.3915 1.66675 1.6665 5.40008 1.6665 10.0001C1.6665 14.6001 5.3915 18.3334 9.99151 18.3334C14.5998 18.3334 18.3332 14.6001 18.3332 10.0001C18.3332 5.40008 14.5998 1.66675 9.99151 1.66675ZM13.3332 13.3334C13.2561 13.4107 13.1645 13.472 13.0637 13.5138C12.9629 13.5556 12.8548 13.5771 12.7457 13.5771C12.6365 13.5771 12.5285 13.5556 12.4277 13.5138C12.3268 13.472 12.2353 13.4107 12.1582 13.3334L9.41651 10.5917C9.33777 10.5146 9.27512 10.4225 9.23221 10.321C9.1893 10.2194 9.16696 10.1103 9.16651 10.0001V6.66675C9.16651 6.20842 9.54151 5.83342 9.99984 5.83342C10.4582 5.83342 10.8332 6.20842 10.8332 6.66675V9.65842L13.3332 12.1584C13.6582 12.4834 13.6582 13.0084 13.3332 13.3334Z" fill="white"/>
</svg>
