<svg width="24" height="24" viewBox="0 0 24 24" fill="none" xmlns="http://www.w3.org/2000/svg">
<path d="M19.6441 6.18054C20.5012 5.64436 21.1425 4.80009 21.4483 3.80535C20.6429 4.30541 19.7618 4.65766 18.8429 4.84687C17.569 3.4367 15.5505 3.09352 13.9155 4.00911C12.2804 4.9247 11.4335 6.87238 11.848 8.76384C8.54901 8.59052 5.47544 6.95985 3.3921 4.27759C2.30485 6.23999 2.86046 8.74861 4.66182 10.0105C4.01043 9.98855 3.37348 9.804 2.80409 9.47219C2.80409 9.4902 2.80409 9.50821 2.80409 9.52622C2.80447 11.5704 4.18125 13.3312 6.09599 13.7363C5.49179 13.9083 4.85802 13.9337 4.24304 13.8104C4.78153 15.5585 6.32121 16.7561 8.07611 16.7919C6.62265 17.9856 4.82769 18.6329 2.98002 18.6298C2.65252 18.6303 2.32528 18.6106 2 18.5707C3.87627 19.8324 6.06002 20.5021 8.29028 20.4997C11.3931 20.522 14.375 19.242 16.569 16.946C18.763 14.6499 19.986 11.5295 19.9644 8.2826C19.9644 8.0965 19.9603 7.91141 19.952 7.72732C20.7556 7.11961 21.4491 6.36679 22 5.5042C21.2514 5.85144 20.4573 6.07941 19.6441 6.18054Z" fill="white"/>
</svg>
