<svg width="24" height="24" viewBox="0 0 24 24" fill="none" xmlns="http://www.w3.org/2000/svg">
<path d="M17.29 9.30966C17.1975 9.21695 17.0876 9.1434 16.9666 9.09322C16.8456 9.04304 16.7159 9.01721 16.585 9.01721C16.454 9.01721 16.3243 9.04304 16.2034 9.09322C16.0824 9.1434 15.9725 9.21695 15.88 9.30966L12 13.1897L8.11998 9.30966C7.933 9.12268 7.67941 9.01763 7.41498 9.01763C7.15055 9.01763 6.89696 9.12268 6.70998 9.30966C6.523 9.49663 6.41796 9.75023 6.41796 10.0147C6.41796 10.2791 6.523 10.5327 6.70998 10.7197L11.3 15.3097C11.3925 15.4024 11.5024 15.4759 11.6234 15.5261C11.7443 15.5763 11.874 15.6021 12.005 15.6021C12.1359 15.6021 12.2656 15.5763 12.3866 15.5261C12.5076 15.4759 12.6175 15.4024 12.71 15.3097L17.3 10.7197C17.68 10.3397 17.68 9.69966 17.29 9.30966Z" fill="white"/>
</svg>
