<svg width="60" height="60" viewBox="0 0 60 60" fill="none" xmlns="http://www.w3.org/2000/svg">
<rect width="60" height="60" rx="16" fill="#47A432"/>
<path d="M25.104 18H21.048C19.368 18 18 19.38 18 21.0732V25.164C18 26.868 19.368 28.2359 21.048 28.2359H25.104C26.796 28.2359 28.1519 26.868 28.1519 25.164V21.0732C28.1519 19.38 26.796 18 25.104 18Z" fill="white"/>
<path d="M25.104 31.7637H21.048C19.368 31.7637 18 33.1329 18 34.8369V38.9276C18 40.6196 19.368 41.9996 21.048 41.9996H25.104C26.796 41.9996 28.1519 40.6196 28.1519 38.9276V34.8369C28.1519 33.1329 26.796 31.7637 25.104 31.7637Z" fill="white"/>
<path d="M38.9521 18H34.8961C33.2041 18 31.8481 19.38 31.8481 21.0732V25.164C31.8481 26.868 33.2041 28.2359 34.8961 28.2359H38.9521C40.6321 28.2359 42.0001 26.868 42.0001 25.164V21.0732C42.0001 19.38 40.6321 18 38.9521 18Z" fill="white" fill-opacity="0.4"/>
<path d="M38.9521 31.7637H34.8961C33.2041 31.7637 31.8481 33.1329 31.8481 34.8369V38.9276C31.8481 40.6196 33.2041 41.9996 34.8961 41.9996H38.9521C40.6321 41.9996 42.0001 40.6196 42.0001 38.9276V34.8369C42.0001 33.1329 40.6321 31.7637 38.9521 31.7637Z" fill="white"/>
</svg>
