<svg width="24" height="24" viewBox="0 0 24 24" fill="none" xmlns="http://www.w3.org/2000/svg">
<path d="M3.91533 2.18876C4.23957 1.95506 4.67182 1.93688 5.01454 2.14251L20.0145 11.1425C20.3157 11.3232 20.5 11.6487 20.5 12C20.5 12.3513 20.3157 12.6768 20.0145 12.8575L5.01454 21.8575C4.67182 22.0631 4.23957 22.0449 3.91533 21.8112C3.5911 21.5775 3.43715 21.1732 3.52386 20.7831L5.25343 13L10.5 13C11.0523 13 11.5 12.5523 11.5 12C11.5 11.4477 11.0523 11 10.5 11L5.25343 11L3.52386 3.21693C3.43715 2.82677 3.5911 2.42246 3.91533 2.18876Z" fill="white"/>
</svg>
