<svg width="20" height="20" viewBox="0 0 20 20" fill="none" xmlns="http://www.w3.org/2000/svg">
<path d="M16.7805 11.9931C16.5496 11.8894 16.2869 11.8817 16.0503 11.9717C15.8137 12.0617 15.6225 12.242 15.5188 12.4729C15.0506 13.5169 14.2958 14.4067 13.3421 15.0389C12.3884 15.6711 11.275 16.0198 10.131 16.0445C8.98711 16.0691 7.85965 15.7688 6.87959 15.1783C5.89954 14.5878 5.10709 13.7314 4.5943 12.7086L5.13492 12.9493C5.3662 13.0523 5.62892 13.0591 5.86527 12.9684C6.10163 12.8777 6.29226 12.6968 6.39523 12.4655C6.49821 12.2342 6.50509 11.9715 6.41436 11.7352C6.32363 11.4988 6.14273 11.3082 5.91144 11.2052L3.39914 10.0867C3.28462 10.0357 3.16118 10.0078 3.03586 10.0045C2.91055 10.0012 2.78582 10.0226 2.66879 10.0676C2.55175 10.1125 2.44472 10.18 2.35379 10.2663C2.26286 10.3526 2.18981 10.4559 2.13883 10.5705L1.02027 13.0827C0.917298 13.314 0.910419 13.5767 1.00115 13.813C1.09188 14.0494 1.27278 14.24 1.50406 14.343C1.73534 14.446 1.99806 14.4529 2.23441 14.3621C2.47077 14.2714 2.6614 14.0905 2.76437 13.8592L2.89195 13.5727C3.5543 14.8901 4.56971 15.9975 5.82485 16.7713C7.07999 17.5451 8.52548 17.955 10 17.955C10.0461 17.955 10.0925 17.9546 10.1387 17.9538C11.6495 17.9277 13.1215 17.4719 14.3827 16.6398C15.6439 15.8077 16.6421 14.6336 17.2604 13.2549C17.3641 13.024 17.3718 12.7613 17.2818 12.5246C17.1918 12.288 17.0115 12.0968 16.7805 11.9931Z" fill="white"/>
<path d="M18.496 5.65724C18.2647 5.55428 18.002 5.5474 17.7656 5.63813C17.5293 5.72886 17.3387 5.90976 17.2357 6.14103L17.1081 6.42756C16.435 5.08867 15.3975 3.9671 14.1149 3.19197C12.8324 2.41684 11.3571 2.01966 9.85873 2.04617C8.3604 2.07267 6.90001 2.52178 5.64571 3.3418C4.39141 4.16181 3.39419 5.31937 2.76885 6.68123C2.71633 6.79515 2.68678 6.9183 2.68188 7.04365C2.67698 7.169 2.69684 7.29408 2.74032 7.41175C2.7838 7.52941 2.85004 7.63736 2.93526 7.72941C3.02049 7.82146 3.12302 7.89581 3.23699 7.94821C3.35097 8.0006 3.47415 8.03002 3.59951 8.03478C3.72486 8.03954 3.84992 8.01955 3.96754 7.97594C4.08516 7.93234 4.19303 7.86598 4.28499 7.78065C4.37695 7.69533 4.45119 7.59272 4.50346 7.47869C4.97898 6.44299 5.73746 5.56272 6.6915 4.93934C7.64554 4.31596 8.75631 3.97484 9.89579 3.9553C11.0353 3.93575 12.1571 4.23857 13.1319 4.82886C14.1068 5.41914 14.895 6.27287 15.4058 7.29166L14.8652 7.05095C14.6341 6.94955 14.3724 6.94373 14.1371 7.03477C13.9017 7.12581 13.712 7.30631 13.6094 7.5368C13.5068 7.7673 13.4996 8.02905 13.5894 8.26483C13.6792 8.50062 13.8587 8.69126 14.0887 8.7951L16.5937 9.91025L16.5982 9.91228C16.7128 9.96372 16.8364 9.99203 16.9619 9.99561C17.0875 9.99919 17.2125 9.97796 17.3298 9.93314C17.4471 9.88831 17.5544 9.82078 17.6456 9.7344C17.7368 9.64803 17.81 9.54451 17.8611 9.42978L18.9796 6.91756C19.0826 6.68629 19.0895 6.42359 18.9988 6.18724C18.9081 5.95089 18.7273 5.76024 18.496 5.65724Z" fill="white"/>
</svg>
