<svg width="24" height="24" viewBox="0 0 24 24" fill="none" xmlns="http://www.w3.org/2000/svg">
<path d="M1.00201 12.0636C1.00318 17.0133 4.58042 21.2277 9.43901 22.0034V14.9714H6.90201V12.0636H9.44201V9.85005C9.32847 8.80118 9.68454 7.75583 10.4137 6.99753C11.1428 6.23923 12.1694 5.84657 13.215 5.92605C13.9656 5.93824 14.7142 6.0055 15.455 6.12728V8.60141H14.191C13.7559 8.54407 13.3184 8.68867 13.0018 8.99449C12.6852 9.3003 12.5238 9.73423 12.563 10.174V12.0636H15.334L14.891 14.9724H12.563V22.0034C17.8175 21.1679 21.5021 16.3395 20.9475 11.0163C20.3929 5.69299 15.7933 1.73835 10.4808 2.01731C5.16838 2.29626 1.00286 6.71116 1.00201 12.0636Z" fill="white"/>
</svg>
