<svg width="24" height="24" viewBox="0 0 24 24" fill="none" xmlns="http://www.w3.org/2000/svg">
<path d="M12.2093 10.3581V13.8365H17.1483C16.6887 16.0469 14.7644 17.317 12.2093 17.317C9.2333 17.2769 6.84224 14.9062 6.84224 11.9955C6.84224 9.08482 9.2333 6.7141 12.2093 6.67404C13.4464 6.67259 14.6453 7.09241 15.6003 7.8614L18.28 5.24074C15.2061 2.59797 10.7169 2.25806 7.26368 4.40661C3.81044 6.55516 2.22311 10.6758 3.36842 14.5185C4.51374 18.3612 8.11645 21.0024 12.2093 21C16.8134 21 21 17.7252 21 11.995C20.9929 11.4433 20.9238 10.894 20.7939 10.3571L12.2093 10.3581Z" fill="white"/>
</svg>
