<svg width="60" height="60" viewBox="0 0 60 60" fill="none" xmlns="http://www.w3.org/2000/svg">
<rect width="60" height="60" rx="16" fill="#9835FB"/>
<path fill-rule="evenodd" clip-rule="evenodd" d="M21.396 25.8881C21.396 23.1621 23.061 21.3951 25.638 21.3951H34.354C36.94 21.3951 38.605 23.1621 38.605 25.8881V31.1901C38.159 30.8121 36.812 29.8711 36.624 29.7591C35.224 28.9191 33.544 29.2991 32.454 30.7191C32.359 30.8441 30.782 33.1441 30.224 33.4881C30.095 33.5681 29.959 33.6111 29.814 33.6311C29.464 33.6611 29.127 33.4811 28.554 33.0981C28.224 32.8881 27.864 32.6491 27.454 32.4791C25.749 31.7661 24.45 32.9441 23.758 33.7341C23.749 33.7421 21.812 36.1041 21.781 36.1411C21.538 35.5501 21.396 34.8671 21.396 34.1021V25.8881ZM40 25.888C40 22.362 37.731 20 34.354 20H25.638C22.271 20 20 22.362 20 25.888V34.102C20 35.674 20.447 37.013 21.238 38.009C21.247 38.018 21.247 38.028 21.256 38.028C22.043 39.013 23.166 39.666 24.519 39.899C24.531 39.901 24.543 39.903 24.556 39.905C24.903 39.962 25.262 40 25.638 40H34.354C34.535 40 34.7 39.966 34.874 39.953C35.078 39.936 35.289 39.932 35.483 39.898C35.74 39.854 35.976 39.777 36.215 39.703C36.319 39.67 36.43 39.65 36.53 39.612C36.773 39.52 36.996 39.401 37.217 39.279C37.297 39.235 37.383 39.199 37.461 39.15C37.678 39.014 37.875 38.855 38.068 38.689C38.132 38.634 38.201 38.584 38.262 38.526C38.45 38.347 38.616 38.15 38.775 37.944C38.824 37.879 38.876 37.819 38.923 37.752C39.076 37.534 39.208 37.299 39.33 37.054C39.364 36.983 39.4 36.914 39.433 36.842C39.546 36.585 39.64 36.316 39.72 36.034C39.741 35.958 39.762 35.883 39.78 35.805C39.851 35.514 39.902 35.214 39.935 34.9C39.939 34.862 39.95 34.827 39.954 34.789C39.961 34.704 39.96 34.619 39.965 34.534C39.973 34.388 40 34.253 40 34.102V25.888Z" fill="white"/>
<path d="M26.5055 28.9995C27.8669 28.9995 29.0006 27.8694 29.0006 26.5145C29.0006 25.8351 28.7157 25.2126 28.2613 24.7609C27.8087 24.2929 27.177 23.9995 26.4793 23.9995C25.1091 23.9995 24.0006 25.1035 24.0006 26.4681C24.0006 26.6486 24.0219 26.8233 24.0597 26.9931C24.2884 28.1252 25.3087 28.9995 26.5055 28.9995Z" fill="white" fill-opacity="0.4"/>
</svg>
