<svg width="16" height="16" viewBox="0 0 16 16" fill="none" xmlns="http://www.w3.org/2000/svg">
<path d="M15.3241 0.675199C14.7473 0.0984059 13.9309 -0.127994 13.1391 0.0705603L2.38028 2.76004C0.946096 3.11858 -0.0105779 4.35261 8.82884e-05 5.83111C0.0107545 7.3096 0.983839 8.52957 2.42295 8.86842L6.23487 9.76522L7.13166 13.5771C7.47052 15.0162 8.69054 15.9893 10.169 16C10.1772 16 10.1846 16 10.1928 16C11.6606 16 12.8832 15.0458 13.2401 13.6198L15.9296 2.86099C16.1273 2.06842 15.9009 1.25199 15.3241 0.675199ZM14.735 2.56063L12.0455 13.3195C11.7756 14.396 10.8673 14.7562 10.1772 14.7685C9.48394 14.7636 8.58387 14.3747 8.32952 13.2941L7.42372 9.44602L10.896 5.97383C11.1364 5.73343 11.1364 5.34368 10.896 5.10328C10.6556 4.86288 10.2659 4.86288 10.0255 5.10328L6.55322 8.57557L2.70519 7.66976C1.62462 7.41542 1.23572 6.51529 1.2308 5.82199C1.22588 5.12787 1.60247 4.22291 2.67975 3.95379L13.4378 1.26431C13.5256 1.24216 13.6142 1.23146 13.7012 1.23146C13.9801 1.23146 14.2493 1.34147 14.4536 1.54495C14.7219 1.81325 14.8269 2.19306 14.735 2.56063Z" fill="white"/>
</svg>
