<svg width="790" height="641" viewBox="0 0 790 641" fill="none" xmlns="http://www.w3.org/2000/svg">
<ellipse cx="197" cy="409.564" rx="24" ry="23.9788" fill="url(#paint0_linear_6_4195)"/>
<path d="M339.871 537.519C336.199 536.268 332.639 534.708 329.229 532.854C297.918 515.839 287.801 481.235 277.085 444.601C269.552 418.858 261.766 392.233 245.951 372.16C230.766 352.887 208.848 340.655 187.656 328.799C176.108 322.357 164.17 315.693 153.331 307.933C120.605 284.501 98.5714 239.586 120.036 207.897C136.517 183.567 169.601 180.48 187.852 180.803C195.135 180.932 202.55 181.463 209.726 181.977C226.949 183.21 244.757 184.488 261.7 180.218C285.908 174.106 306 157.386 325.421 141.218C336.465 131.979 347.897 122.507 360.081 114.89C396.392 92.1925 444.222 87.5311 488.039 102.423C524.841 114.931 554.4 139.309 571.277 171.07C578.633 184.938 584.086 200.312 589.359 215.193C599.361 243.416 608.803 270.076 630.261 288.266C641.655 297.928 655.64 304.127 669.157 310.125C675.77 313.063 682.612 316.095 689.109 319.513C703.668 327.165 728.338 344.019 730.069 370.925C732.188 403.923 696.172 429.383 661.194 432.461C646.856 433.719 632.255 432.678 618.138 431.632C599.759 430.314 580.747 428.952 562.432 432.747C528.581 439.789 500.706 463.34 473.741 486.12C466.655 492.108 459.335 498.276 452.021 504.073C432.97 519.173 383.985 552.512 339.871 537.519ZM487.231 104.682C444.06 90.0094 396.947 94.5818 361.218 116.917C349.173 124.451 337.808 133.913 326.82 143.057C307.199 159.393 286.913 176.29 262.173 182.523C244.885 186.878 226.897 185.596 209.489 184.349C202.344 183.837 194.96 183.309 187.752 183.19C169.964 182.877 137.767 185.843 121.908 209.248C101.267 239.747 122.846 283.232 154.625 306.01C165.355 313.717 177.247 320.333 188.743 326.741C210.135 338.681 232.261 351.023 247.728 370.653C263.823 391.089 271.677 417.932 279.269 443.898C289.846 480.054 299.827 514.222 330.309 530.769C333.616 532.567 337.067 534.08 340.628 535.291C383.686 549.926 431.867 517.093 450.587 502.294C457.859 496.548 465.178 490.363 472.251 484.387C499.437 461.422 527.547 437.667 561.974 430.513C580.575 426.644 599.741 428.018 618.282 429.35C632.318 430.353 646.831 431.396 660.991 430.151C694.859 427.175 729.753 402.762 727.719 371.166C726.004 344.444 699.354 327.648 687.983 321.664C681.551 318.284 674.745 315.265 668.165 312.346C654.497 306.28 640.37 300.009 628.723 290.139C606.787 271.543 596.799 243.349 587.14 216.071C581.887 201.294 576.473 185.966 569.196 172.263C552.604 140.989 523.486 117.012 487.229 104.689L487.231 104.682Z" fill="#6A1AB7"/>
<defs>
<linearGradient id="paint0_linear_6_4195" x1="215" y1="385.585" x2="179.441" y2="433.573" gradientUnits="userSpaceOnUse">
<stop stop-color="#E250E5"/>
<stop offset="1" stop-color="#4B50E6"/>
</linearGradient>
</defs>
</svg>
