<svg width="51" height="52" viewBox="0 0 51 52" fill="none" xmlns="http://www.w3.org/2000/svg">
<path d="M25.5042 51.6813C18.7424 51.6737 12.2598 48.99 7.47845 44.219C2.69713 39.448 0.00762323 32.9792 0 26.232C0.00762323 19.4848 2.69713 13.0162 7.47845 8.24516C12.2598 3.47415 18.7424 0.790444 25.5042 0.782837C32.266 0.790444 38.7487 3.47415 43.53 8.24516C48.3114 13.0162 51.0008 19.4848 51.0085 26.232C51.0008 32.9792 48.3114 39.448 43.53 44.219C38.7487 48.99 32.266 51.6737 25.5042 51.6813ZM25.5042 2.99578C19.3294 3.00149 13.4089 5.4512 9.04198 9.8074C4.67501 14.1636 2.21819 20.0705 2.21056 26.232C2.21819 32.3923 4.67402 38.2982 9.03943 42.6542C13.4048 47.0102 19.3234 49.4608 25.497 49.4684C31.6707 49.4608 37.5892 47.0102 41.9546 42.6542C46.32 38.2982 48.7759 32.3923 48.7835 26.232C48.7759 20.073 46.321 14.1683 41.9572 9.81249C37.5933 5.4567 31.6766 3.00529 25.5042 2.99578Z" fill="#6A1AB7"/>
</svg>
