<svg width="12" height="20" viewBox="0 0 12 20" fill="none" xmlns="http://www.w3.org/2000/svg">
<path d="M0.444197 9.2196L9.34445 0.31951C9.5503 0.113495 9.8251 0 10.1181 0C10.4111 0 10.6859 0.113495 10.8918 0.31951L11.5472 0.974789C11.9737 1.40178 11.9737 2.09576 11.5472 2.52209L4.07344 9.99585L11.5555 17.4779C11.7613 17.6839 11.875 17.9586 11.875 18.2514C11.875 18.5446 11.7613 18.8192 11.5555 19.0254L10.9 19.6805C10.694 19.8865 10.4194 20 10.1264 20C9.83339 20 9.5586 19.8865 9.35274 19.6805L0.444197 10.7723C0.237857 10.5656 0.124525 10.2897 0.125175 9.99634C0.124525 9.70187 0.237857 9.4261 0.444197 9.2196Z" fill="white"/>
</svg>
