<svg width="60" height="60" viewBox="0 0 60 60" fill="none" xmlns="http://www.w3.org/2000/svg">
<rect width="60" height="60" rx="16" fill="#DF4949"/>
<rect x="23" y="24" width="13" height="4" fill="white" fill-opacity="0.4"/>
<path fill-rule="evenodd" clip-rule="evenodd" d="M26.125 18H33.8375C37.225 18 39.9625 19.284 40 22.5478V40.7631C40 40.9671 39.95 41.1711 39.85 41.3511C39.6875 41.6391 39.4125 41.8551 39.075 41.9511C38.75 42.0471 38.3875 41.9991 38.0875 41.8311L29.9875 37.9432L21.875 41.8311C21.6888 41.9259 21.475 41.9871 21.2625 41.9871C20.5625 41.9871 20 41.4351 20 40.7631V22.5478C20 19.284 22.75 18 26.125 18ZM25.2753 27.1437H34.6878C35.2253 27.1437 35.6628 26.7225 35.6628 26.1958C35.6628 25.6678 35.2253 25.2478 34.6878 25.2478H25.2753C24.7378 25.2478 24.3003 25.6678 24.3003 26.1958C24.3003 26.7225 24.7378 27.1437 25.2753 27.1437Z" fill="white"/>
</svg>
