<svg width="18" height="18" viewBox="0 0 18 18" fill="none" xmlns="http://www.w3.org/2000/svg">
<mask id="mask0_6_4274" style="mask-type:luminance" maskUnits="userSpaceOnUse" x="0" y="0" width="18" height="17">
<path fill-rule="evenodd" clip-rule="evenodd" d="M0.666626 0.666626H16.6858V16.3322H0.666626V0.666626Z" fill="white" stroke="white"/>
</mask>
<g mask="url(#mask0_6_4274)">
<path fill-rule="evenodd" clip-rule="evenodd" d="M8.67662 1.87309C4.94011 1.87309 1.90023 4.84502 1.90023 8.499C1.90023 12.153 4.94011 15.1257 8.67662 15.1257C12.4123 15.1257 15.4522 12.153 15.4522 8.499C15.4522 4.84502 12.4123 1.87309 8.67662 1.87309ZM8.6766 16.3322C4.2599 16.3322 0.666504 12.8181 0.666504 8.49899C0.666504 4.17985 4.2599 0.666626 8.6766 0.666626C13.0933 0.666626 16.6859 4.17985 16.6859 8.49899C16.6859 12.8181 13.0933 16.3322 8.6766 16.3322Z" fill="white"/>
<path d="M8.67662 1.37309C4.67463 1.37309 1.40023 4.55833 1.40023 8.499H2.40023C2.40023 5.13171 5.20558 2.37309 8.67662 2.37309V1.37309ZM1.40023 8.499C1.40023 12.4396 4.67455 15.6257 8.67662 15.6257V14.6257C5.20566 14.6257 2.40023 11.8664 2.40023 8.499H1.40023ZM8.67662 15.6257C12.6779 15.6257 15.9522 12.4395 15.9522 8.499H14.9522C14.9522 11.8664 12.1467 14.6257 8.67662 14.6257V15.6257ZM15.9522 8.499C15.9522 4.55837 12.6778 1.37309 8.67662 1.37309V2.37309C12.1468 2.37309 14.9522 5.13167 14.9522 8.499H15.9522ZM8.6766 15.8322C4.52546 15.8322 1.1665 12.5315 1.1665 8.49899H0.166504C0.166504 13.1047 3.99435 16.8322 8.6766 16.8322V15.8322ZM1.1665 8.49899C1.1665 4.46653 4.52539 1.16663 8.6766 1.16663V0.166626C3.99442 0.166626 0.166504 3.89317 0.166504 8.49899H1.1665ZM8.6766 1.16663C12.8277 1.16663 16.1859 4.46646 16.1859 8.49899H17.1859C17.1859 3.89324 13.3589 0.166626 8.6766 0.166626V1.16663ZM16.1859 8.49899C16.1859 12.5316 12.8277 15.8322 8.6766 15.8322V16.8322C13.3589 16.8322 17.1859 13.1047 17.1859 8.49899H16.1859Z" fill="white"/>
</g>
<mask id="mask1_6_4274" style="mask-type:luminance" maskUnits="userSpaceOnUse" x="12" y="12" width="6" height="6">
<path fill-rule="evenodd" clip-rule="evenodd" d="M13.2012 13.2999H17.3333V17.3333H13.2012V13.2999Z" fill="white" stroke="white"/>
</mask>
<g mask="url(#mask1_6_4274)">
<path fill-rule="evenodd" clip-rule="evenodd" d="M16.7166 17.3333C16.5596 17.3333 16.4016 17.2746 16.2807 17.1572L13.3823 14.3309C13.1413 14.0952 13.1405 13.7131 13.3815 13.4775C13.6217 13.2402 14.0123 13.2418 14.2541 13.4759L17.1526 16.303C17.3935 16.5387 17.3944 16.9199 17.1534 17.1556C17.0333 17.2746 16.8746 17.3333 16.7166 17.3333Z" fill="white"/>
<path d="M16.7166 17.3333C16.5595 17.3333 16.4016 17.2746 16.2807 17.1572L13.3823 14.3309C13.1413 14.0952 13.1405 13.7131 13.3815 13.4775C13.6217 13.2402 14.0123 13.2418 14.2541 13.4759L17.1526 16.303C17.3935 16.5387 17.3944 16.9199 17.1534 17.1556C17.0333 17.2746 16.8746 17.3333 16.7166 17.3333" stroke="white"/>
</g>
</svg>
