<svg width="60" height="60" viewBox="0 0 60 60" fill="none" xmlns="http://www.w3.org/2000/svg">
<rect width="60" height="60" rx="16" fill="#5142FC"/>
<path fill-rule="evenodd" clip-rule="evenodd" d="M36.9227 28.0176H41.104C41.5989 28.0176 42 28.3978 42 28.8669V31.8192C41.9943 32.286 41.5965 32.6631 41.104 32.6685H37.0187C35.8258 32.6837 34.7826 31.9095 34.512 30.8081C34.3765 30.1244 34.5668 29.4189 35.0317 28.8807C35.4967 28.3424 36.1889 28.0265 36.9227 28.0176ZM37.104 31.1217H37.4986C38.0053 31.1217 38.416 30.7324 38.416 30.2521C38.416 29.7719 38.0053 29.3826 37.4986 29.3826H37.104C36.8617 29.3799 36.6283 29.4693 36.4559 29.6307C36.2836 29.7922 36.1866 30.0123 36.1866 30.242C36.1866 30.7239 36.5956 31.1161 37.104 31.1217Z" fill="#F9F9FA" fill-opacity="0.4"/>
<path d="M36.9227 26.2788H42C42 22.3154 39.5573 20 35.4187 20H24.5813C20.4427 20 18 22.3154 18 26.2282V34.7718C18 38.6846 20.4427 41 24.5813 41H35.4187C39.5573 41 42 38.6846 42 34.7718V34.4078H36.9227C34.5662 34.4078 32.656 32.5971 32.656 30.3635C32.656 28.1299 34.5662 26.3192 36.9227 26.3192V26.2788Z" fill="white"/>
<path d="M30.4587 26.2791H23.6854C23.177 26.2736 22.768 25.8813 22.7681 25.3995C22.7739 24.9232 23.1829 24.54 23.6854 24.54H30.4587C30.9654 24.54 31.3761 24.9293 31.3761 25.4096C31.3761 25.8898 30.9654 26.2791 30.4587 26.2791Z" fill="#948BFB"/>
</svg>
