<svg width="16" height="16" viewBox="0 0 16 16" fill="none" xmlns="http://www.w3.org/2000/svg">
<g clip-path="url(#clip0_6_3788)">
<path d="M14.7145 2.64647C12.9744 0.906815 10.1436 0.906815 8.40393 2.64647L7.99986 3.05031L7.59603 2.64647C5.85637 0.906579 3.02531 0.906579 1.28565 2.64647C-0.418689 4.35081 -0.429756 7.05236 1.25998 8.93072C2.80114 10.6433 7.34643 14.3432 7.53928 14.4998C7.6702 14.6063 7.82773 14.6581 7.98432 14.6581C7.9895 14.6581 7.99468 14.6581 7.99963 14.6578C8.16163 14.6654 8.32481 14.6098 8.45997 14.4998C8.65282 14.3432 13.1986 10.6433 14.7402 8.93048C16.4297 7.05236 16.4186 4.35081 14.7145 2.64647ZM13.69 7.98554C12.4884 9.32042 9.18546 12.0735 7.99963 13.0505C6.8138 12.0738 3.51155 9.32089 2.31018 7.98577C1.13142 6.67561 1.12035 4.80974 2.28452 3.64558C2.87908 3.05125 3.6599 2.75385 4.44072 2.75385C5.22154 2.75385 6.00236 3.05101 6.59693 3.64558L7.48512 4.53377C7.59085 4.6395 7.72412 4.7026 7.86399 4.72474C8.09099 4.77348 8.33729 4.71014 8.51389 4.53401L9.40256 3.64558C10.5919 2.45668 12.5266 2.45692 13.7152 3.64558C14.8794 4.80974 14.8683 6.67561 13.69 7.98554Z" fill="white"/>
</g>
<defs>
<clipPath id="clip0_6_3788">
<rect width="16" height="16" fill="white"/>
</clipPath>
</defs>
</svg>
